<svg width="108" height="116" viewBox="0 0 108 116" fill="none" xmlns="http://www.w3.org/2000/svg">
<path d="M2.5 2.5H13.34C17.12 2.5 19.0067 2.5 20.5133 3.32667C21.1345 3.66861 21.6971 4.10746 22.18 4.62667C23.3467 5.88667 23.8067 7.72 24.72 11.3867L25.9333 16.2333C26.6067 18.9267 26.9467 20.2733 27.4667 21.4067C28.3556 23.3406 29.6945 25.0337 31.3716 26.3443C33.0487 27.6549 35.0152 28.5449 37.1067 28.94C38.3333 29.1667 39.72 29.1667 42.5 29.1667" stroke="black" stroke-width="5" stroke-linecap="round"/>
<path d="M95.8334 89.1666H26.1667C25.2001 89.1666 24.7134 89.1666 24.3401 89.1266C23.4144 89.0233 22.5207 88.7273 21.7165 88.2575C20.9122 87.7876 20.2154 87.1545 19.6708 86.3989C19.1263 85.6433 18.7461 84.782 18.5548 83.8705C18.3634 82.9589 18.3652 82.0174 18.5601 81.1066C18.7133 80.5165 18.8935 79.9336 19.1001 79.36C19.4467 78.3333 19.6134 77.82 19.8067 77.36C20.7557 75.0869 22.3158 73.1212 24.314 71.6808C26.3122 70.2405 28.6703 69.3818 31.1267 69.2C31.6201 69.1666 32.1667 69.1666 33.2401 69.1666H69.1667" stroke="black" stroke-width="5" stroke-linecap="round" stroke-linejoin="round"/>
<path d="M72.6865 69.1666H48.9932C40.8865 69.1666 36.8332 69.1666 33.7065 67.3333C32.3883 66.5576 31.2134 65.5608 30.2332 64.3866C27.8998 61.6 27.2332 57.6 25.9065 49.6066C24.5532 41.5066 23.8798 37.4533 25.4865 34.4533C26.1549 33.2013 27.0821 32.1059 28.2065 31.24C30.8998 29.1666 35.0065 29.1666 43.2198 29.1666H87.5932C97.2598 29.1666 102.093 29.1666 104.053 32.3266C106.006 35.4933 103.84 39.8133 99.5198 48.46L96.5398 54.4266C92.9532 61.6 91.1598 65.1866 87.9398 67.1733C84.7132 69.1666 80.7065 69.1666 72.6865 69.1666Z" stroke="black" stroke-width="5" stroke-linecap="round"/>
<path d="M89.1667 115.833C92.8486 115.833 95.8333 112.849 95.8333 109.167C95.8333 105.485 92.8486 102.5 89.1667 102.5C85.4848 102.5 82.5 105.485 82.5 109.167C82.5 112.849 85.4848 115.833 89.1667 115.833Z" fill="black"/>
<path d="M35.8332 115.833C39.5151 115.833 42.4998 112.849 42.4998 109.167C42.4998 105.485 39.5151 102.5 35.8332 102.5C32.1513 102.5 29.1665 105.485 29.1665 109.167C29.1665 112.849 32.1513 115.833 35.8332 115.833Z" fill="black"/>
</svg>
