<svg width="112" height="112" viewBox="0 0 112 112" fill="none" xmlns="http://www.w3.org/2000/svg">
<path d="M2.5 95.8334C2.5 88.761 5.30951 81.9782 10.3105 76.9772C15.3115 71.9763 22.0942 69.1667 29.1667 69.1667H82.5C89.5724 69.1667 96.3552 71.9763 101.356 76.9772C106.357 81.9782 109.167 88.761 109.167 95.8334C109.167 99.3696 107.762 102.761 105.261 105.262C102.761 107.762 99.3696 109.167 95.8333 109.167H15.8333C12.2971 109.167 8.90573 107.762 6.40524 105.262C3.90476 102.761 2.5 99.3696 2.5 95.8334Z" stroke="black" stroke-width="5" stroke-linejoin="round"/>
<path d="M55.8335 42.5C66.8792 42.5 75.8335 33.5457 75.8335 22.5C75.8335 11.4543 66.8792 2.5 55.8335 2.5C44.7878 2.5 35.8335 11.4543 35.8335 22.5C35.8335 33.5457 44.7878 42.5 55.8335 42.5Z" stroke="black" stroke-width="5"/>
</svg>
